Units are S.I. units (second, meters, Newtons, ...)
Angles are in degrees.
name walk
datarows 41
datacolumns 18
range 4.080000 4.480000
endheader
time root_joint_q1 root_joint_q2 root_joint_q3 root_joint_q4 root_joint_q5 root_joint_q6 root_joint_q7 exo_ha_l_q exo_hip_l exo_knee_l l_ankle_coupling l_foot exo_ha_r_q exo_hip_r exo_knee_r r_ankle_coupling r_foot
4.080000	1.662376	0.044031	0.894904	-0.000669	-0.000508	0.000416	1.000000	0.090608	0.041154	-0.713141	0.662802	0.065633	0.050925	0.292253	-1.130762	0.837480	-0.040531
4.090000	1.667683	0.045276	0.894249	-0.000614	-0.000379	0.000324	1.000000	0.094231	0.030269	-0.706915	0.667276	0.067324	0.048726	0.303358	-1.129551	0.825254	-0.038512
4.100000	1.672641	0.046523	0.893552	-0.000560	-0.000275	0.000232	1.000000	0.097873	0.020043	-0.701162	0.671518	0.069034	0.046509	0.314030	-1.127132	0.812166	-0.036493
4.110000	1.677242	0.047756	0.892843	-0.000534	-0.000224	0.000147	1.000000	0.101445	0.010382	-0.695756	0.675436	0.070732	0.044401	0.324564	-1.123670	0.798148	-0.034517
4.120000	1.681506	0.048966	0.892135	-0.000527	-0.000214	0.000071	1.000000	0.104956	0.001261	-0.690643	0.679025	0.072405	0.042426	0.335116	-1.119262	0.783178	-0.032616
4.130000	1.685471	0.050152	0.891441	-0.000521	-0.000206	-0.000001	1.000000	0.108438	-0.007298	-0.685807	0.682327	0.074049	0.040537	0.345686	-1.113946	0.767301	-0.030797
4.140000	1.689157	0.051304	0.890770	-0.000513	-0.000190	-0.000066	1.000000	0.111881	-0.015308	-0.681241	0.685366	0.075649	0.038724	0.356266	-1.107762	0.750564	-0.029068
4.150000	1.692570	0.052405	0.890129	-0.000502	-0.000165	-0.000121	1.000000	0.115262	-0.022780	-0.676940	0.688147	0.077176	0.036992	0.366853	-1.100751	0.733008	-0.027441
4.160000	1.695705	0.053432	0.889527	-0.000483	-0.000140	-0.000159	1.000000	0.118552	-0.029720	-0.672899	0.690657	0.078593	0.035352	0.377450	-1.092956	0.714668	-0.025942
4.170000	1.698544	0.054353	0.888973	-0.000451	-0.000131	-0.000173	1.000000	0.121713	-0.036137	-0.669115	0.692862	0.079849	0.033832	0.388052	-1.084432	0.695579	-0.024607
4.180000	1.701069	0.055137	0.888467	-0.000398	-0.000168	-0.000152	1.000000	0.124716	-0.042062	-0.665589	0.694737	0.080896	0.032469	0.398634	-1.075237	0.675785	-0.023483
4.190000	1.703314	0.055784	0.887999	-0.000306	-0.000249	-0.000095	1.000000	0.127600	-0.047561	-0.662285	0.696310	0.081738	0.031271	0.409174	-1.065427	0.655361	-0.022618
4.200000	1.705311	0.056293	0.887540	-0.000142	-0.000403	0.000000	1.000000	0.130433	-0.052745	-0.659184	0.697620	0.082377	0.030260	0.419595	-1.055065	0.634410	-0.022060
4.210000	1.707088	0.056660	0.887034	0.000145	-0.000679	0.000139	1.000000	0.133327	-0.057768	-0.656283	0.698713	0.082825	0.029443	0.429750	-1.044216	0.613069	-0.021829
4.220000	1.708673	0.056887	0.886386	0.000611	-0.001184	0.000334	0.999999	0.136422	-0.062886	-0.653620	0.699671	0.083108	0.028744	0.439348	-1.032940	0.591539	-0.021836
4.230000	1.710103	0.056983	0.885432	0.001215	-0.002203	0.000619	0.999997	0.139673	-0.068700	-0.651360	0.700684	0.083269	0.027892	0.447749	-1.021315	0.570113	-0.021785
4.240000	1.711442	0.056946	0.883843	0.001564	-0.004523	0.001103	0.999988	0.142327	-0.076776	-0.650029	0.702258	0.083341	0.026478	0.453252	-1.009581	0.549199	-0.021200
4.250000	1.712889	0.056694	0.880990	0.000770	-0.009773	0.002028	0.999950	0.142547	-0.090519	-0.650531	0.705405	0.083262	0.025166	0.450853	-0.999142	0.528965	-0.019889
4.260000	1.715095	0.056635	0.882287	0.000434	-0.006979	0.001892	0.999974	0.143148	-0.089660	-0.647879	0.707019	0.082624	0.026541	0.453729	-0.999068	0.531391	-0.020439
4.270000	1.715095	0.056635	0.882287	0.000434	-0.006979	0.001892	0.999974	0.143148	-0.089660	-0.647879	0.707019	0.082624	0.026541	0.453729	-0.999068	0.531391	-0.020439
4.280000	1.717348	0.057742	0.881012	0.000329	-0.004783	0.001529	0.999987	0.146511	-0.084819	-0.660366	0.718673	0.084368	0.025925	0.461563	-1.014130	0.542789	-0.019395
4.290000	1.719677	0.059051	0.879524	0.000145	-0.002715	0.001123	0.999996	0.150070	-0.080285	-0.673236	0.730777	0.086480	0.025210	0.469245	-1.029805	0.554693	-0.018077
4.300000	1.722000	0.060399	0.877887	-0.000044	-0.000750	0.000701	0.999999	0.153729	-0.075924	-0.686348	0.743100	0.088707	0.024452	0.476827	-1.045809	0.566818	-0.016699
4.310000	1.724282	0.061738	0.876145	-0.000235	0.001125	0.000275	0.999999	0.157417	-0.071694	-0.699586	0.755503	0.090968	0.023707	0.484284	-1.061882	0.578956	-0.015329
4.320000	1.726495	0.063029	0.874344	-0.000430	0.002921	-0.000147	0.999996	0.161062	-0.067572	-0.712822	0.767861	0.093194	0.023031	0.491572	-1.077764	0.590917	-0.014017
4.330000	1.728620	0.064259	0.872528	-0.000648	0.004651	-0.000562	0.999989	0.164594	-0.063541	-0.725929	0.780050	0.095351	0.022482	0.498641	-1.093187	0.602503	-0.012789
4.340000	1.730638	0.065416	0.870745	-0.000915	0.006325	-0.000965	0.999979	0.167931	-0.059592	-0.738781	0.791955	0.097407	0.022131	0.505429	-1.107865	0.613515	-0.011661
4.350000	1.732543	0.066476	0.869049	-0.001266	0.007957	-0.001350	0.999967	0.170948	-0.055716	-0.751264	0.803477	0.099304	0.022086	0.511843	-1.121467	0.623742	-0.010676
4.360000	1.734342	0.067240	0.867523	-0.001678	0.009578	-0.001671	0.999951	0.173364	-0.051882	-0.763284	0.814537	0.100705	0.022577	0.517768	-1.133605	0.632974	-0.010120
4.370000	1.736030	0.067455	0.866266	-0.002114	0.011231	-0.001871	0.999933	0.174841	-0.047997	-0.774783	0.825048	0.101178	0.023874	0.523105	-1.143833	0.640950	-0.010354
4.380000	1.737573	0.066958	0.865380	-0.002572	0.012950	-0.001909	0.999911	0.175094	-0.043930	-0.785725	0.834894	0.100423	0.026202	0.527780	-1.151659	0.647327	-0.011620
4.390000	1.739146	0.065516	0.864934	-0.003097	0.014771	-0.001726	0.999885	0.173645	-0.039934	-0.795936	0.844199	0.098034	0.029983	0.531370	-1.156613	0.652129	-0.014264
4.400000	1.741583	0.062634	0.864875	-0.003830	0.016712	-0.001194	0.999852	0.169444	-0.037481	-0.804895	0.853911	0.093208	0.036203	0.532403	-1.158524	0.656709	-0.019029
4.410000	1.746467	0.057884	0.864858	-0.005166	0.018723	-0.000186	0.999811	0.161071	-0.039442	-0.812068	0.866228	0.085289	0.046308	0.528303	-1.157990	0.664151	-0.026601
4.420000	1.755766	0.051015	0.863953	-0.008040	0.020604	0.001416	0.999754	0.146338	-0.048726	-0.819881	0.886082	0.073942	0.062695	0.516020	-1.156820	0.678952	-0.037540
4.430000	1.761432	0.045882	0.865461	-0.001736	0.010880	0.001604	0.999938	0.122874	-0.048915	-0.825430	0.886715	0.090588	0.056940	0.476320	-1.133692	0.675927	-0.044515
4.440000	1.766658	0.040805	0.865304	0.001486	0.004461	0.002072	0.999987	0.093733	-0.034704	-0.838557	0.880368	0.082136	0.057846	0.448413	-1.120082	0.677263	-0.051984
4.450000	1.771801	0.037248	0.866373	0.002149	0.001377	0.002411	0.999994	0.075040	-0.015326	-0.854476	0.873672	0.069550	0.062006	0.426938	-1.103431	0.675784	-0.057499
4.460000	1.777019	0.034778	0.868119	0.001839	0.000101	0.002617	0.999995	0.063217	0.003995	-0.870998	0.868744	0.059102	0.066642	0.409158	-1.086087	0.673521	-0.061480
4.470000	1.782269	0.033044	0.870157	0.001366	-0.000348	0.002712	0.999995	0.055435	0.021854	-0.887329	0.865829	0.051524	0.070541	0.393389	-1.069164	0.671307	-0.064355
4.480000	1.787466	0.031809	0.872274	0.000989	-0.000474	0.002718	0.999996	0.050147	0.038385	-0.903342	0.864467	0.046229	0.073507	0.378763	-1.052949	0.669293	-0.066459
